HIERARCHY
ROOT Hips
{
	OFFSET 0.000000 0.000000 0.000000
	CHANNELS 6 Xposition Yposition Zposition Zrotation Yrotation Xrotation 
	JOINT LHipJoint
	{
		OFFSET 0.000000 0.000000 0.000000
		CHANNELS 3 Zrotation Yrotation Xrotation
		JOINT LeftUpLeg
		{
			OFFSET 1.363060 -1.794630 0.839290
			CHANNELS 3 Zrotation Yrotation Xrotation
			JOINT LeftLeg
			{
				OFFSET 2.448110 -6.726130 0.000000
				CHANNELS 3 Zrotation Yrotation Xrotation
				JOINT LeftFoot
				{
					OFFSET 2.562200 -7.039590 0.000000
					CHANNELS 3 Zrotation Yrotation Xrotation
					JOINT LeftToeBase
					{
						OFFSET 0.157640 -0.433110 2.322550
						CHANNELS 3 Zrotation Yrotation Xrotation
						End Site
						{
							OFFSET 0.000000 0.000000 0.000000
						}
					}
				}
			}
		}
	}
	JOINT RHipJoint
	{
		OFFSET 0.000000 0.000000 0.000000
		CHANNELS 3 Zrotation Yrotation Xrotation
		JOINT RightUpLeg
		{
			OFFSET -1.305520 -1.794630 0.839290
			CHANNELS 3 Zrotation Yrotation Xrotation
			JOINT RightLeg
			{
				OFFSET -2.542530 -6.985550 0.000000
				CHANNELS 3 Zrotation Yrotation Xrotation
				JOINT RightFoot
				{
					OFFSET -2.568260 -7.056230 0.000000
					CHANNELS 3 Zrotation Yrotation Xrotation
					JOINT RightToeBase
					{
						OFFSET -0.164730 -0.452590 2.363150
						CHANNELS 3 Zrotation Yrotation Xrotation
						End Site
						{
							OFFSET 0.000000 0.000000 0.000000
						}
					}
				}
			}
		}
	}
	JOINT LowerBack
	{
		OFFSET 0.000000 0.000000 0.000000
		CHANNELS 3 Zrotation Yrotation Xrotation
		JOINT Spine
		{
			OFFSET 0.028270 2.035590 -0.193380
			CHANNELS 3 Zrotation Yrotation Xrotation
			JOINT Spine1
			{
				OFFSET 0.056720 2.048850 -0.042750
				CHANNELS 3 Zrotation Yrotation Xrotation
				JOINT Neck
				{
					OFFSET 0.000000 0.000000 0.000000
					CHANNELS 3 Zrotation Yrotation Xrotation
					JOINT Neck1
					{
						OFFSET -0.054170 1.746240 0.172020
						CHANNELS 3 Zrotation Yrotation Xrotation
						JOINT Head
						{
							OFFSET 0.104070 1.761360 -0.123970
							CHANNELS 3 Zrotation Yrotation Xrotation
							End Site
							{
								OFFSET 0.000000 0.000000 0.000000
							}
						}
					}
				}
				JOINT LeftShoulder
				{
					OFFSET 0.000000 0.000000 0.000000
					CHANNELS 3 Zrotation Yrotation Xrotation
					JOINT LeftArm
					{
						OFFSET 3.362410 1.200890 -0.311210
						CHANNELS 3 Zrotation Yrotation Xrotation
						JOINT LeftForeArm
						{
							OFFSET 4.983000 -0.000000 -0.000000
							CHANNELS 3 Zrotation Yrotation Xrotation
							JOINT LeftHand
							{
								OFFSET 3.483560 -0.000000 -0.000000
								CHANNELS 3 Zrotation Yrotation Xrotation
								JOINT LeftFingerBase
								{
									OFFSET 0.000000 0.000000 0.000000
									CHANNELS 3 Zrotation Yrotation Xrotation
									JOINT LeftHandIndex1
									{
										OFFSET 0.715260 -0.000000 -0.000000
										CHANNELS 3 Zrotation Yrotation Xrotation
										End Site
										{
											OFFSET 0.000000 0.000000 0.000000
										}
									}
								}
								JOINT LThumb
								{
									OFFSET 0.000000 0.000000 0.000000
									CHANNELS 3 Zrotation Yrotation Xrotation
									End Site
									{
										OFFSET 0.000000 0.000000 0.000000
									}
								}
							}
						}
					}
				}
				JOINT RightShoulder
				{
					OFFSET 0.000000 0.000000 0.000000
					CHANNELS 3 Zrotation Yrotation Xrotation
					JOINT RightArm
					{
						OFFSET -3.136600 1.374050 -0.404650
						CHANNELS 3 Zrotation Yrotation Xrotation
						JOINT RightForeArm
						{
							OFFSET -5.241900 -0.000000 -0.000000
							CHANNELS 3 Zrotation Yrotation Xrotation
							JOINT RightHand
							{
								OFFSET -3.444170 -0.000000 -0.000000
								CHANNELS 3 Zrotation Yrotation Xrotation
								JOINT RightFingerBase
								{
									OFFSET 0.000000 0.000000 0.000000
									CHANNELS 3 Zrotation Yrotation Xrotation
									JOINT RightHandIndex1
									{
										OFFSET -0.622530 -0.000000 -0.000000
										CHANNELS 3 Zrotation Yrotation Xrotation
										End Site
										{
											OFFSET 0.000000 0.000000 0.000000
										}
									}
								}
								JOINT RThumb
								{
									OFFSET 0.000000 0.000000 0.000000
									CHANNELS 3 Zrotation Yrotation Xrotation
									End Site
									{
										OFFSET 0.000000 0.000000 0.000000
									}
								}
							}
						}
					}
				}
			}
		}
	}
}
MOTION
Frames: 12
Frame Time: 0.033333
-1.630496 16.593254 23.841112 -1.803938 -23.189397 9.446884 -2.331746 17.311968 14.481072 -15.475669 -25.474792 -18.752119 -5.540883 -7.697153 27.792588 2.597029 -7.873843 34.888691 0.000000 0.000000 0.000000 1.996673 -34.960974 -9.330632 50.568275 20.666091 -6.368442 -15.701827 7.364632 42.478508 -6.002887 23.640689 -27.416218 0.000000 0.000000 0.000000 -3.166402 6.448009 7.157850 -3.143013 5.331344 1.773477 5.940868 4.946286 -5.727877 5.496188 0.952532 -6.671574 3.423312 0.860820 -8.432735 0.000000 0.000000 0.000000 -2.838883 10.320487 17.872940 -80.983468 -5.005434 -25.659039 -143.990264 -72.359674 178.174880 13.007115 -9.210759 -0.951230 13.284116 -9.039707 0.000000 0.000000 0.000000 0.000000 0.000000 0.000000 0.000000 4.714330 -12.172932 5.491113 51.951675 8.309256 19.718659 28.630123 68.066078 0.150556 0.058157 4.860651 0.075124 0.056735 4.862344 0.000000 0.000000 0.000000 0.000000 0.000000 0.000000 0.000000 
-1.650996 16.614525 24.032941 -1.712738 -22.547494 8.785517 -0.547435 17.000833 13.630628 -18.210204 -25.205137 -16.342390 -5.315069 -8.044727 27.741819 2.735179 -7.844698 35.647122 0.000000 0.000000 0.000000 0.509328 -33.826989 -10.113660 50.184655 19.104338 -4.752414 -14.153479 6.764092 41.148434 -5.642020 23.633332 -28.071789 0.000000 0.000000 0.000000 -3.275550 6.177988 8.267157 -3.070905 5.080630 0.964359 5.546384 4.736584 -4.936004 5.707246 0.830533 -6.649049 3.219327 0.749163 -7.235193 0.000000 0.000000 0.000000 -2.152099 10.029629 18.028201 -81.423394 -4.949475 -25.071427 -143.887282 -72.964673 178.188627 13.383723 -9.674846 -0.944536 13.666138 -9.499279 0.000000 0.000000 0.000000 0.000000 0.000000 0.000000 0.000000 3.304168 -12.146070 5.277640 54.180300 9.092320 18.269038 31.444301 66.005272 0.112520 0.023820 3.948929 0.056178 0.022832 3.950109 0.000000 0.000000 0.000000 0.000000 0.000000 0.000000 0.000000 
-1.669118 16.638846 24.223512 -1.751837 -21.769501 8.222357 0.852082 16.711041 12.854338 -20.231719 -24.724849 -14.425371 -5.087508 -8.126637 27.754618 2.867295 -7.703081 36.009904 0.000000 0.000000 0.000000 -0.930484 -32.428785 -10.845684 49.578694 17.447238 -3.277094 -12.437934 5.994574 39.565331 -5.232863 23.429237 -28.671709 0.000000 0.000000 0.000000 -3.186305 5.802550 9.244335 -2.910210 4.762695 0.246402 5.077271 4.489526 -4.214043 5.810831 0.572788 -6.555280 2.562621 0.527947 -5.081592 0.000000 0.000000 0.000000 -1.645192 9.827671 18.161682 -81.760587 -4.791443 -24.432476 -143.753419 -73.665298 178.191940 13.805449 -10.169003 -0.943550 14.096086 -9.986725 0.000000 0.000000 0.000000 0.000000 0.000000 0.000000 0.000000 2.080073 -12.082947 5.078267 56.120671 9.841414 16.966656 33.863381 64.187356 0.081733 -0.081061 2.973020 0.040837 -0.081469 2.973753 0.000000 0.000000 0.000000 0.000000 0.000000 0.000000 0.000000 
-1.683657 16.665698 24.412104 -1.824590 -20.910173 7.666354 2.077108 16.365277 11.981744 -22.060854 -23.963630 -12.516312 -4.750102 -8.043422 27.659453 2.999407 -7.378862 36.186431 0.000000 0.000000 0.000000 -2.347132 -30.823896 -11.447001 48.719596 15.757852 -1.930737 -10.560401 5.138053 37.745440 -4.805755 23.092519 -29.211304 0.000000 0.000000 0.000000 -2.975114 5.430582 10.111103 -2.785330 4.456330 -0.156397 4.639276 4.251583 -3.805164 5.933555 0.434680 -6.482276 2.242909 0.417926 -3.865935 0.000000 0.000000 0.000000 -1.310731 9.638062 18.285157 -82.009291 -4.521502 -23.603315 -143.674291 -74.473216 178.192611 14.245939 -10.700497 -0.944271 14.547143 -10.509724 0.000000 0.000000 0.000000 0.000000 0.000000 0.000000 0.000000 1.052023 -12.191408 4.838112 57.718671 10.482384 15.914521 36.049999 62.705951 0.061775 -0.220944 1.948943 0.030893 -0.220608 1.949316 0.000000 0.000000 0.000000 0.000000 0.000000 0.000000 0.000000 
-1.694588 16.694581 24.598068 -1.912344 -19.999394 7.142897 3.098292 15.980478 11.006009 -23.666476 -22.934735 -10.656438 -4.299986 -7.785837 27.451808 3.128523 -6.870935 36.149040 0.000000 0.000000 0.000000 -3.670517 -29.062427 -11.849711 47.581281 14.141810 -0.781513 -8.528269 4.260534 35.732030 -4.382013 22.667635 -29.687150 0.000000 0.000000 0.000000 -2.669800 5.070924 10.834606 -2.706161 4.167950 -0.288426 4.253791 4.026429 -3.675370 6.100192 0.404750 -6.414396 2.215068 0.393298 -3.523227 0.000000 0.000000 0.000000 -1.161734 9.439629 18.402390 -82.173641 -4.139558 -22.589858 -143.658271 -75.399500 178.190255 14.707612 -11.274883 -0.946976 15.022200 -11.073479 0.000000 0.000000 0.000000 0.000000 0.000000 0.000000 0.000000 0.236536 -12.437744 4.584180 58.972844 10.975809 15.183734 37.960178 61.713296 0.053224 -0.386424 0.893193 0.026638 -0.385334 0.893277 0.000000 0.000000 0.000000 0.000000 0.000000 0.000000 0.000000 
-1.701912 16.724790 24.780414 -2.070111 -18.655037 6.420889 4.070059 15.388386 9.913155 -25.152232 -21.575718 -8.538271 -3.691283 -7.416580 27.118669 3.250541 -6.211739 35.941568 0.000000 0.000000 0.000000 -5.174687 -26.542230 -12.616602 46.039092 11.738438 0.931131 -5.935102 3.070972 32.805145 -3.754000 21.757143 -30.125095 0.000000 0.000000 0.000000 -2.163458 4.535207 11.726504 -2.591542 3.726962 -0.282395 3.679489 3.680195 -3.735121 6.442074 0.385629 -6.307306 2.220152 0.378440 -3.299431 0.000000 0.000000 0.000000 -0.985928 9.294889 18.481333 -82.261762 -3.562100 -21.098959 -143.744393 -76.747791 178.112748 15.534304 -12.116081 -0.990917 15.883767 -11.888888 0.000000 0.000000 0.000000 0.000000 0.000000 0.000000 0.000000 -1.001562 -12.970781 4.113733 60.650144 11.964809 13.089864 41.530456 57.866581 0.050161 -0.587847 -0.273527 0.025105 -0.586446 -0.273700 0.000000 0.000000 0.000000 0.000000 0.000000 0.000000 0.000000 
-1.704988 16.755931 24.959156 -2.270725 -16.752039 5.469862 4.915638 14.511804 8.668991 -26.431429 -19.879822 -6.154428 -2.925115 -6.939075 26.654783 3.350600 -5.412505 35.537718 0.000000 0.000000 0.000000 -6.737439 -23.024667 -13.772020 43.852473 8.457303 3.303472 -2.645073 1.666349 28.680074 -2.931780 20.304232 -30.459552 0.000000 0.000000 0.000000 -1.472319 3.762910 12.805181 -2.432628 3.075187 -0.131681 2.914554 3.155619 -4.102180 6.964529 0.377273 -6.079463 2.264440 0.373334 -3.184494 0.000000 0.000000 0.000000 -0.766401 9.226493 18.553489 -82.266398 -2.722640 -19.086173 -143.996138 -78.590669 177.957624 16.742020 -13.278098 -1.078773 17.154636 -13.004611 0.000000 0.000000 0.000000 0.000000 0.000000 0.000000 0.000000 -2.691515 -13.948772 3.202761 62.560972 13.740491 9.268704 46.270661 49.559631 0.066573 -0.927557 -1.742785 0.033298 -0.926684 -1.743179 0.000000 0.000000 0.000000 0.000000 0.000000 0.000000 0.000000 
-1.704286 16.787670 25.133810 -2.429282 -14.869444 4.802874 5.223491 13.729127 7.477809 -26.996472 -18.215995 -4.458606 -2.138009 -6.179055 26.274323 3.400766 -4.551954 34.525066 0.000000 0.000000 0.000000 -7.746556 -19.553844 -14.375893 41.150146 5.724171 5.087807 0.785925 0.573230 24.444243 -2.214989 18.871239 -30.633329 0.000000 0.000000 0.000000 -0.804321 2.999680 13.478485 -2.291902 2.423803 0.116295 2.238542 2.627472 -4.734441 7.434269 0.374247 -5.676574 2.278699 0.370111 -3.156107 0.000000 0.000000 0.000000 -0.745817 9.133527 18.666789 -82.195338 -1.679234 -16.839686 -144.414554 -80.725761 177.835125 17.880766 -14.547442 -1.151794 18.363014 -14.221840 0.000000 0.000000 0.000000 0.000000 0.000000 0.000000 0.000000 -4.022140 -15.033334 2.081007 63.836502 15.521334 6.283844 49.523321 41.204751 0.128410 -1.415779 -3.659237 0.064224 -1.417680 -3.659753 0.000000 0.000000 0.000000 0.000000 0.000000 0.000000 0.000000 
-1.700077 16.819785 25.304600 -2.508855 -13.162915 4.504435 4.993112 13.128960 6.404031 -26.912387 -16.665193 -3.528452 -1.335098 -5.138804 25.979702 3.378921 -3.662241 32.813880 0.000000 0.000000 0.000000 -8.146928 -16.428240 -14.271786 38.039440 3.756383 6.087414 4.206947 -0.181120 20.410463 -1.613293 17.528639 -30.680758 0.000000 0.000000 0.000000 -0.200495 2.326195 13.631654 -2.190640 1.830060 0.463030 1.659262 2.148357 -5.582813 7.843138 0.376066 -5.122466 2.259012 0.368983 -3.231156 0.000000 0.000000 0.000000 -0.947135 8.986594 18.801591 -82.039720 -0.455882 -14.360692 -145.050195 -83.186354 177.751038 18.928756 -15.929578 -1.207347 19.487857 -15.545770 0.000000 0.000000 0.000000 0.000000 0.000000 0.000000 0.000000 -4.950315 -16.109811 0.859928 64.635763 17.120538 4.432810 51.684114 33.834846 0.240160 -1.981527 -5.938304 0.120223 -1.991397 -5.938672 -0.000000 0.000000 0.000000 0.000000 0.000000 0.000000 0.000000 
-1.694510 16.851002 25.470146 -2.436367 -11.836067 4.292440 4.590284 12.656022 5.474115 -26.725950 -15.264136 -2.836417 -0.639210 -4.147724 25.671887 3.312663 -2.861809 31.083832 0.000000 0.000000 0.000000 -8.041282 -13.937985 -13.991411 35.241703 2.356521 6.674529 6.431237 -0.748845 17.636514 -1.149227 16.414960 -30.714000 0.000000 0.000000 0.000000 0.190410 1.821311 13.642778 -2.120642 1.358500 0.776269 1.150172 1.768085 -6.555191 8.201254 0.384185 -4.438535 2.255517 0.373401 -3.380206 0.000000 0.000000 0.000000 -1.147947 8.828317 19.058492 -81.876616 0.828411 -12.198540 -145.591781 -85.441108 178.136170 18.211211 -16.468684 -1.003186 18.717173 -16.119901 0.000000 0.000000 0.000000 0.000000 0.000000 0.000000 0.000000 -5.731059 -17.234832 -0.652382 65.304645 18.852838 3.219404 53.374868 26.189517 0.433627 -2.667927 -8.963125 0.217536 -2.698224 -8.962713 -0.000000 0.000000 0.000000 0.000000 0.000000 0.000000 0.000000 
-1.688025 16.881177 25.630578 -2.277537 -10.947474 4.149313 4.096775 12.363660 4.734393 -26.466453 -14.016637 -2.378356 -0.054419 -3.204003 25.361489 3.213042 -2.150074 29.353526 0.000000 0.000000 0.000000 -7.621108 -12.224059 -13.638947 32.992536 1.464629 6.838962 7.398328 -1.354488 16.359004 -0.821374 15.582214 -30.806869 0.000000 0.000000 0.000000 0.427077 1.512368 13.553819 -2.079489 1.049955 1.060371 0.727845 1.525828 -7.619986 8.485801 0.397998 -3.657127 2.257752 0.383018 -3.624710 0.000000 0.000000 0.000000 -1.345677 8.662512 19.466894 -81.702302 2.166640 -10.485034 -145.898302 -87.217066 179.095000 14.541028 -15.245221 -0.484808 14.820116 -15.055681 0.000000 0.000000 0.000000 0.000000 0.000000 0.000000 0.000000 -6.322947 -18.375929 -2.409545 65.930495 20.650538 2.639353 54.735536 18.624340 0.729164 -3.429159 -12.728347 0.367219 -3.503449 -12.725883 -0.000000 0.000000 0.000000 0.000000 0.000000 0.000000 0.000000 
-1.681172 16.910274 25.786425 -2.083206 -10.185144 4.074153 3.545503 12.093590 4.082896 -26.138480 -12.919173 -2.056222 0.443250 -2.332684 25.079097 3.079986 -1.542709 27.644967 0.000000 0.000000 0.000000 -7.063607 -10.697398 -13.176661 30.704150 0.661238 6.858068 8.327754 -2.004489 15.249688 -0.511821 14.711030 -30.821264 0.000000 0.000000 0.000000 0.603022 1.260394 13.363685 -2.039609 0.793678 1.333954 0.376516 1.317720 -8.783795 8.720327 0.416168 -2.749852 2.264690 0.397009 -3.953091 0.000000 0.000000 0.000000 -1.598820 8.377223 19.887053 -81.516926 3.392516 -8.857434 -146.456180 -89.015421 179.489990 12.814538 -14.762507 -0.276055 13.013579 -14.627522 0.000000 0.000000 0.000000 0.000000 0.000000 0.000000 0.000000 -6.727059 -19.425713 -4.306354 66.597518 22.464213 2.510264 55.795103 10.948510 1.020671 -3.960669 -16.041069 0.516366 -4.092297 -16.035828 -0.000000 0.000000 0.000000 0.000000 0.000000 0.000000 0.000000 
